<svg xmlns="http://www.w3.org/2000/svg" width="36" height="36" viewBox="0 0 120 39.408"><defs><clipPath id="clip-path"><rect id="Rect치ngulo_31" data-name="Rect치ngulo 31" width="120" height="39.408" fill="#fff"></rect></clipPath></defs><g id="download" clip-path="url(#clip-path)"><path id="Trazado_56" data-name="Trazado 56" d="M343.229,73.84a4.311,4.311,0,0,1-4.407,4.285l-1.882-.007-.014,3.943-2.867-.01.045-12.544,4.749.017a4.311,4.311,0,0,1,4.375,4.317m-2.866-.009a1.533,1.533,0,0,0-1.517-1.618l-1.882-.007-.012,3.226,1.882.007a1.533,1.533,0,0,0,1.529-1.607" transform="translate(-248.004 -51.602)" fill="#fff"></path><path id="Trazado_57" data-name="Trazado 57" d="M379.348,77.9l-1.362,0-.014,4.122L375.1,82l.045-12.544,5.018.018a4.291,4.291,0,0,1,4.285,4.317,4.135,4.135,0,0,1-2.325,3.63l2.654,4.615-3.082-.011ZM378,75.383l2.15.007a1.624,1.624,0,0,0,.012-3.226l-2.15-.008Z" transform="translate(-278.476 -51.566)" fill="#fff"></path><path id="Trazado_58" data-name="Trazado 58" d="M415.186,75.051a6.467,6.467,0,1,1,1.878,4.636,6.523,6.523,0,0,1-1.878-4.636m10.179.036A3.656,3.656,0,1,0,421.7,78.8a3.568,3.568,0,0,0,3.669-3.715" transform="translate(-308.232 -50.892)" fill="#fff"></path><path id="Trazado_59" data-name="Trazado 59" d="M0,6.5A6.36,6.36,0,0,1,6.546,0a6.256,6.256,0,0,1,5.366,2.923L9.434,4.346a3.243,3.243,0,0,0-2.9-1.551A3.471,3.471,0,0,0,2.867,6.51,3.471,3.471,0,0,0,6.51,10.25,3.223,3.223,0,0,0,9.418,8.719l2.468,1.442A6.212,6.212,0,0,1,6.5,13.045,6.359,6.359,0,0,1,0,6.5" transform="translate(0 0.001)" fill="#fff"></path><path id="Trazado_60" data-name="Trazado 60" d="M48.623,6.5a6.523,6.523,0,1,1,6.5,6.546,6.523,6.523,0,0,1-6.5-6.546M58.8,6.536a3.657,3.657,0,1,0-7.312-.026,3.657,3.657,0,1,0,7.312.026" transform="translate(-36.097 -0.001)" fill="#fff"></path><path id="Trazado_61" data-name="Trazado 61" d="M117.98,13.478l-2.867-.01.026-7.294-3.262,5.311h-.323L108.328,6.15l-.026,7.294-2.867-.01L105.48.889l2.867.01,3.385,5.585L115.157.923l2.867.01Z" transform="translate(-78.275 -0.66)" fill="#fff"></path><path id="Trazado_62" data-name="Trazado 62" d="M171.644,5.289a4.311,4.311,0,0,1-4.406,4.285l-1.882-.007-.014,3.943-2.867-.01L162.52.956l4.749.017a4.312,4.312,0,0,1,4.375,4.317m-2.867-.01a1.533,1.533,0,0,0-1.518-1.618l-1.882-.007-.012,3.226,1.882.007a1.533,1.533,0,0,0,1.529-1.607" transform="translate(-120.621 -0.71)" fill="#fff"></path><path id="Trazado_63" data-name="Trazado 63" d="M207.759,9.347l-1.362,0-.014,4.122-2.867-.01L203.559.91l5.018.018a4.291,4.291,0,0,1,4.286,4.316,4.134,4.134,0,0,1-2.325,3.63l2.654,4.615-3.082-.011Zm-1.353-2.514,2.15.008A1.519,1.519,0,0,0,210,5.233a1.519,1.519,0,0,0-1.428-1.618l-2.15-.008Z" transform="translate(-151.089 -0.676)" fill="#fff"></path><path id="Trazado_64" data-name="Trazado 64" d="M243.6,6.5a6.523,6.523,0,1,1,6.5,6.546A6.523,6.523,0,0,1,243.6,6.5m10.179.036a3.657,3.657,0,1,0-7.312-.026,3.657,3.657,0,1,0,7.312.026" transform="translate(-180.847 -0.001)" fill="#fff"></path><path id="Trazado_65" data-name="Trazado 65" d="M312.957,13.478l-2.867-.01.026-7.294-3.262,5.311h-.323L303.306,6.15l-.026,7.294-2.867-.01L300.457.889l2.867.01,3.385,5.585L310.134.923,313,.933Z" transform="translate(-223.026 -0.66)" fill="#fff"></path><rect id="Rect치ngulo_30" data-name="Rect치ngulo 30" width="12.544" height="2.867" transform="translate(92.081 12.791) rotate(-89.771)" fill="#fff"></rect><path id="Trazado_66" data-name="Trazado 66" d="M373.837,9.929,376.315,8.5a2.627,2.627,0,0,0,2.628,1.748c1.362,0,1.7-.532,1.706-1.016,0-.771-.713-1.078-2.593-1.6-1.862-.525-3.686-1.428-3.678-3.829A3.924,3.924,0,0,1,378.6,0a4.865,4.865,0,0,1,4.578,2.848l-2.424,1.407A2.2,2.2,0,0,0,378.594,2.8c-.9,0-1.346.443-1.348.945,0,.573.3.969,2.252,1.567,1.9.58,4.028,1.251,4.018,3.9-.009,2.419-1.949,3.846-4.673,3.836-2.634-.009-4.314-1.27-5.006-3.118" transform="translate(-277.535 0)" fill="#fff"></path><path id="Trazado_67" data-name="Trazado 67" d="M414.576,6.5a6.523,6.523,0,1,1,6.5,6.547,6.523,6.523,0,0,1-6.5-6.547m10.178.035a3.657,3.657,0,1,0-7.312-.026,3.657,3.657,0,1,0,7.312.026" transform="translate(-307.779 -0.004)" fill="#fff"></path><path id="Trazado_68" data-name="Trazado 68" d="M238.665,68.727l-6.678,6.678h15.026V90.431l6.678-6.678V68.727Z" transform="translate(-172.226 -51.023)" fill="#e74100"></path></g></svg>