<svg id="cchc-logo" xmlns="http://www.w3.org/2000/svg" width="1em" height="0.29em" viewBox="0 0 167 49.005"><path id="Trazado_691" data-name="Trazado 691" d="M124,37.475V31.338c0-16.041-10.081-20.073-19.506-20.073-7.876,0-18.6,3-24.282,7.157V.4H64.721V37.475h15.5V29.146c4.133-3.112,13.559-5.771,18.864-5.771,8.266,0,9.3,5.771,9.3,11.883v2.218h15.625ZM160.022,0c-16.973,1.6-27.079,13.584-27.079,25.277a22.325,22.325,0,0,0,3.78,12.261H155.17a14.428,14.428,0,0,1-7.145-12.324,14.5,14.5,0,0,1,12-13.987V0ZM53.884,0C36.936,1.6,26.83,13.584,26.83,25.277a22.325,22.325,0,0,0,3.78,12.261H49.058A14.428,14.428,0,0,1,41.913,25.2a14.5,14.5,0,0,1,12-13.987V0Z" transform="translate(6.978)" fill="#006EDC" fill-rule="evenodd"></path><path id="Trazado_692" data-name="Trazado 692" d="M27.079,0C10.106,1.6,0,13.584,0,25.277A22.325,22.325,0,0,0,3.78,37.538H22.228A14.428,14.428,0,0,1,15.083,25.2a14.5,14.5,0,0,1,12-13.987V0Z" fill="#E74100" fill-rule="evenodd"></path><path id="Trazado_693" data-name="Trazado 693" d="M5.862,39.46l-.2-.542a2.3,2.3,0,0,1-1.1.3,1.733,1.733,0,0,1,.05-3.453,1.943,1.943,0,0,1,1.134.34l.025-.706A2.7,2.7,0,0,0,4.6,35.15,2.306,2.306,0,0,0,2.22,37.544a2.162,2.162,0,0,0,2.243,2.319,2.7,2.7,0,0,0,1.4-.4Zm5.746.34L9.818,35.175h-.5L7.575,39.8h.706l.428-1.184h1.676l.454,1.184h.769ZM10.146,38.01H8.936l.454-1.247c.076-.214.126-.391.176-.554a4.186,4.186,0,0,0,.164.567ZM17.933,39.8V35.188H17.24l-1.222,1.941a2.564,2.564,0,0,0-.252.479h-.013a4.486,4.486,0,0,0-.277-.466l-1.31-1.953h-.68V39.8h.706V36.851a3.3,3.3,0,0,0-.025-.479h.013a3.11,3.11,0,0,0,.265.441l1.109,1.663h.378l1.033-1.638a5.2,5.2,0,0,0,.252-.466h.013c-.013.189-.013.315-.013.491V39.8h.718Zm5.922,0-1.8-4.625h-.5L19.811,39.8h.718l.416-1.184h1.676l.454,1.184h.769ZM22.394,38.01H21.172l.454-1.247c.076-.214.126-.391.176-.554.038.151.088.34.164.567ZM28.921,39.8a12.1,12.1,0,0,0-1.361-2.1,1.311,1.311,0,0,0,.844-1.222c0-.706-.428-1.285-1.563-1.285H25.708V39.8h.731V37.922h.416c.176.05.529.68,1.235,1.878Zm-1.26-3.251a.786.786,0,0,1-.794.806h-.428V35.818h.416a.715.715,0,0,1,.819.731ZM34.415,39.8l-1.789-4.625h-.5L30.37,39.8h.718l.416-1.184H33.18l.454,1.184h.781ZM32.954,38.01H31.731l.454-1.247c.076-.214.126-.391.176-.554a4.53,4.53,0,0,0,.176.567Zm9.7,1.449-.214-.542a2.3,2.3,0,0,1-1.1.3,1.733,1.733,0,0,1,.05-3.453,1.943,1.943,0,0,1,1.134.34l.025-.706A2.684,2.684,0,0,0,41.4,35.15,2.309,2.309,0,0,0,39,37.544a2.159,2.159,0,0,0,2.23,2.319,2.707,2.707,0,0,0,1.411-.4Zm5.708.34V35.188h-.718v1.941H45.366V35.188h-.718V39.8h.718V37.784h2.281V39.8Zm2.306,0h.718V35.188h-.718Zm5.381,0v-.63H54.413V35.188h-.718V39.8Zm4.3,0v-.63h-1.7V37.733h1.474V37.1H58.647v-1.3h1.474l.227-.63H57.929v4.6h2.419Zm6.086,0V35.188h-.718V38.6a5.72,5.72,0,0,0-.479-.693L63.2,35.188h-.731V39.8h.718V36.9c0-.227,0-.454-.013-.6.126.189.252.378.466.668L65.754,39.8Zm5.91,0-1.789-4.625h-.5L68.312,39.8h.706l.428-1.184h1.676l.454,1.184h.769ZM70.882,38.01h-1.21l.441-1.247a3.43,3.43,0,0,0,.176-.554H70.3a4.185,4.185,0,0,0,.164.567ZM80.9,37.443a2.174,2.174,0,0,0-2.482-2.256H77.17V39.8h1.222a2.283,2.283,0,0,0,2.52-2.356Zm-.756.013a1.57,1.57,0,0,1-1.726,1.714h-.529V35.818h.529A1.548,1.548,0,0,1,80.144,37.456ZM85.386,39.8v-.63H83.7V37.733h1.462V37.1H83.7v-1.3h1.462l.227-.63H82.967v4.6h2.419Zm7.435,0v-.63H91.182V35.188h-.718V39.8h2.369Zm5.507,0-1.789-4.625h-.5L94.282,39.8H95l.416-1.184h1.676l.454,1.184h.781ZM96.866,38.01H95.643l.454-1.247c.076-.214.126-.391.176-.554.038.151.088.34.164.567l.428,1.235Zm9.7,1.449-.214-.542a2.3,2.3,0,0,1-1.1.3,1.733,1.733,0,0,1,.05-3.453,1.943,1.943,0,0,1,1.134.34l.025-.706a2.684,2.684,0,0,0-1.159-.252,2.309,2.309,0,0,0-2.394,2.394,2.162,2.162,0,0,0,2.243,2.319,2.7,2.7,0,0,0,1.4-.4Zm1.764-1.928a2.371,2.371,0,0,0,.706,1.764,2.439,2.439,0,0,0,3.213-.076,2.459,2.459,0,0,0,.63-1.726,2.422,2.422,0,0,0-.567-1.638,2.373,2.373,0,0,0-3.339-.038,2.423,2.423,0,0,0-.643,1.714Zm3.78-.013a1.525,1.525,0,1,1-3.024,0c0-1.084.6-1.739,1.512-1.739C111.558,35.78,112.113,36.486,112.113,37.519Zm6.8,2.268v-4.6H118.2V37.96c0,.227,0,.454.013.643a5.8,5.8,0,0,0-.479-.693l-2.041-2.722h-.731V39.8h.706V36.3c.126.189.239.378.454.668l2.142,2.835h.655Zm4.94-1.2c0-1.424-1.978-1.386-1.978-2.293,0-.378.328-.542.718-.542a1.821,1.821,0,0,1,1.021.328V35.4a2.168,2.168,0,0,0-1.058-.252,1.268,1.268,0,0,0-1.424,1.222,1.207,1.207,0,0,0,.315.832c.554.617,1.638.756,1.638,1.462,0,.416-.428.592-.806.592a1.764,1.764,0,0,1-1.008-.34l-.29.542a2.283,2.283,0,0,0,1.323.4c.882,0,1.55-.5,1.55-1.273Zm5.129-3.4h-3.478v.63h1.31V39.8h.731V35.818h1.235Zm5.04,4.612a11.485,11.485,0,0,0-1.386-2.1,1.3,1.3,0,0,0,.857-1.222c0-.706-.428-1.285-1.562-1.285H130.8V39.8h.731V37.922h.416c.176.05.529.68,1.235,1.878h.832Zm-1.26-3.251a.8.8,0,0,1-.806.806h-.428V35.818h.4c.592,0,.832.34.832.731Zm6.615,1.588V35.188h-.718v2.936a1.169,1.169,0,0,1-.252.806,1.105,1.105,0,0,1-.844.3,1,1,0,0,1-.794-.3,1.26,1.26,0,0,1-.29-.844v-2.9h-.718v2.923a1.824,1.824,0,0,0,.441,1.31,1.847,1.847,0,0,0,1.336.441,1.783,1.783,0,0,0,1.4-.5,1.745,1.745,0,0,0,.428-1.222Zm5.733,1.323-.214-.542a2.253,2.253,0,0,1-1.084.3,1.733,1.733,0,0,1,.05-3.453,2,2,0,0,1,1.134.34l.025-.706a2.7,2.7,0,0,0-1.172-.252,2.306,2.306,0,0,0-2.382,2.394,2.159,2.159,0,0,0,2.23,2.319A2.774,2.774,0,0,0,145.114,39.46Zm5.406,0-.214-.542a2.253,2.253,0,0,1-1.084.3,1.733,1.733,0,0,1,.05-3.453,2,2,0,0,1,1.134.34l.025-.706a2.7,2.7,0,0,0-1.172-.252,2.317,2.317,0,0,0-2.394,2.394,2.169,2.169,0,0,0,2.243,2.319A2.774,2.774,0,0,0,150.52,39.46Zm2,.34h.718V35.188h-.718Zm2.772-2.268a2.429,2.429,0,0,0,.718,1.764,2.274,2.274,0,0,0,1.575.567,2.242,2.242,0,0,0,1.638-.643,2.645,2.645,0,0,0,.076-3.364,2.283,2.283,0,0,0-1.714-.706,2.239,2.239,0,0,0-1.638.668,2.423,2.423,0,0,0-.643,1.714Zm3.805-.013a1.525,1.525,0,1,1-3.024,0c0-1.084.6-1.739,1.512-1.739A1.531,1.531,0,0,1,159.1,37.519Zm6.8,2.268v-4.6h-.718V38.6a5.746,5.746,0,0,0-.479-.693l-2.041-2.722h-.731V39.8h.718V36.9c0-.227,0-.454-.013-.6.126.189.252.378.466.668l2.117,2.835h.668Z" transform="translate(0.577 9.142)" fill="#006EDC" fill-rule="evenodd"></path></svg>