<svg xmlns="http://www.w3.org/2000/svg" width="1em" height="0.85em" viewBox="0 0 167 141.894"><g id="Grupo_1003" data-name="Grupo 1003" transform="translate(-1020.944 -3471.302)"><path id="Trazado_496" data-name="Trazado 496" d="M102.79,81.642l4.661-2.7a4.953,4.953,0,0,0,4.963,3.276c2.568,0,3.208-1.012,3.208-1.926,0-1.451-1.35-2.025-4.9-3-3.508-.98-6.953-2.669-6.953-7.192,0-4.556,3.85-7.192,7.934-7.192a9.167,9.167,0,0,1,8.644,5.336L115.791,70.9a4.141,4.141,0,0,0-4.087-2.734c-1.685,0-2.533.843-2.533,1.79,0,1.082.577,1.823,4.255,2.936,3.58,1.08,7.6,2.331,7.6,7.328,0,4.556-3.648,7.259-8.78,7.259-4.963,0-8.136-2.364-9.455-5.842" transform="translate(943.041 3456.5)" fill="#fff"></path><path id="Trazado_497" data-name="Trazado 497" d="M129.553,81.609v5.2H114.7V63.175h14.688v5.2H120.1v3.92h8.44v5.132H120.1v4.185Z" transform="translate(951.907 3456.703)" fill="#fff"></path><path id="Trazado_498" data-name="Trazado 498" d="M138.8,81.609v5.2H124.961V63.175h5.4V81.609Z" transform="translate(959.547 3456.703)" fill="#fff"></path><path id="Trazado_499" data-name="Trazado 499" d="M148.1,81.609v5.2H134.256V63.175h5.4V81.609Z" transform="translate(966.466 3456.703)" fill="#fff"></path><path id="Trazado_500" data-name="Trazado 500" d="M142.2,75.194a12.29,12.29,0,1,1,12.291,12.29A12.186,12.186,0,0,1,142.2,75.194m19.178,0a6.889,6.889,0,1,0-6.887,7.023,6.721,6.721,0,0,0,6.887-7.023" transform="translate(972.376 3456.5)" fill="#fff"></path><path id="Trazado_501" data-name="Trazado 501" d="M127.958,94.459a11.854,11.854,0,0,1-12.073,11.827h-5.174v10.843h-7.887v-34.5h13.061a11.857,11.857,0,0,1,12.073,11.831m-7.885,0a4.214,4.214,0,0,0-4.188-4.436h-5.174v8.872h5.174a4.216,4.216,0,0,0,4.188-4.436" transform="translate(943.067 3471.184)" fill="#fff"></path><path id="Trazado_502" data-name="Trazado 502" d="M131.114,105.793h-3.745v11.335h-7.885v-34.5h13.8a11.8,11.8,0,0,1,11.826,11.829,11.376,11.376,0,0,1-6.357,10.006l7.344,12.665h-8.478Zm-3.745-6.9h5.914a4.467,4.467,0,0,0,0-8.872h-5.914Z" transform="translate(955.469 3471.185)" fill="#fff"></path><path id="Trazado_503" data-name="Trazado 503" d="M135.717,100.174a17.941,17.941,0,1,1,17.94,17.94,17.786,17.786,0,0,1-17.94-17.94m28,0a10.057,10.057,0,1,0-10.057,10.249,9.814,9.814,0,0,0,10.057-10.249" transform="translate(967.553 3470.891)" fill="#fff"></path><path id="Trazado_505" data-name="Trazado 505" d="M180.64,101.977v24.778H155.862l-3.334,3.334h31.443V98.645Z" transform="translate(980.068 3483.108)" fill="#fff"></path><path id="Trazado_506" data-name="Trazado 506" d="M91.855,76.8V52.369h24.658l3.26-3.334H88.523V80.13Z" transform="translate(932.421 3446.176)" fill="#fff"></path><path id="Trazado_507" data-name="Trazado 507" d="M91.855,98.8l-3.332,3.332v27.834h28.2l3.334-3.332h-28.2Z" transform="translate(932.421 3483.225)" fill="#fff"></path><path id="Trazado_508" data-name="Trazado 508" d="M160.682,35.329,133.368,62.643h61.458V124.1L222.14,96.787V35.329Z" transform="translate(965.804 3435.973)" fill="#fff"></path></g></svg>